<svg width="32" height="32" viewBox="0 0 32 32" fill="none" xmlns="http://www.w3.org/2000/svg">
  <defs>
    <linearGradient id="spectrum" x1="5" y1="24" x2="27" y2="8" gradientUnits="userSpaceOnUse">
      <stop stop-color="#FF754E"/>
      <stop offset="0.28" stop-color="#FF27C8"/>
      <stop offset="0.58" stop-color="#A63DFF"/>
      <stop offset="0.82" stop-color="#315CFF"/>
      <stop offset="1" stop-color="#6DE7FF"/>
    </linearGradient>
    <radialGradient id="light" cx="0" cy="0" r="1" gradientUnits="userSpaceOnUse" gradientTransform="translate(15 14) rotate(52) scale(8)">
      <stop stop-color="white"/>
      <stop offset="0.42" stop-color="#FFF8FE" stop-opacity="0.96"/>
      <stop offset="1" stop-color="#DCC7FF" stop-opacity="0"/>
    </radialGradient>
    <filter id="soft" x="1" y="1" width="30" height="30" filterUnits="userSpaceOnUse">
      <feGaussianBlur stdDeviation="1.35"/>
    </filter>
  </defs>
  <rect width="32" height="32" rx="8.5" fill="#F4F5FA"/>
  <g filter="url(#soft)">
    <path d="M4.5 20.6C7.8 10.8 12.2 7.1 18.5 7.9C23.2 8.5 26.6 10.3 27.8 8.2C27.5 16.9 23 22.9 16.4 23.8C10.8 24.6 7.5 23.7 4.5 20.6Z" fill="url(#spectrum)"/>
    <path d="M6.2 24.7C9.8 18.4 14.1 17.4 18.1 18.5C22.4 19.6 24.7 18 27 14.8C26 23.6 16.9 28.3 6.2 24.7Z" fill="#5D50FF" fill-opacity="0.72"/>
  </g>
  <path d="M5.8 20.4C9.3 11.4 13 8.6 18.3 9.1C22.5 9.6 25.5 11.1 27 9.7" stroke="url(#spectrum)" stroke-width="2.1" stroke-linecap="round"/>
  <circle cx="15.4" cy="15.2" r="7.1" fill="url(#light)"/>
  <circle cx="15.4" cy="15.2" r="2.25" fill="white" fill-opacity="0.92"/>
  <rect x="0.5" y="0.5" width="31" height="31" rx="8" stroke="white" stroke-opacity="0.82"/>
</svg>
